<?xml version="1.0" standalone="no"?>
<!DOCTYPE svg PUBLIC "-//W3C//DTD SVG 20010904//EN"
 "http://www.w3.org/TR/2001/REC-SVG-20010904/DTD/svg10.dtd">
<svg version="1.0" xmlns="http://www.w3.org/2000/svg"
 width="363.000000pt" height="349.000000pt" viewBox="0 0 363.000000 349.000000"
 preserveAspectRatio="xMidYMid meet">

<g transform="translate(0.000000,349.000000) scale(0.100000,-0.100000)"
fill="#6366F1" stroke="none">
<path d="M1774 3257 c-39 -19 -181 -149 -589 -538 -297 -283 -614 -585 -705
-671 -183 -174 -220 -226 -220 -307 1 -80 49 -158 124 -198 39 -20 141 -21
186 -1 19 9 64 43 100 76 l65 60 5 -571 5 -572 24 -48 c63 -128 238 -164 341
-71 77 70 74 48 80 616 l5 507 28 29 c35 36 71 45 112 27 16 -7 291 -275 610
-595 492 -494 588 -586 635 -608 124 -59 271 -19 348 95 50 73 52 96 52 547
l1 421 -223 216 -223 217 -5 -397 -5 -396 -573 570 c-316 314 -578 579 -584
589 -11 20 -18 13 359 379 67 65 128 117 136 115 13 -3 148 -130 617 -583 124
-120 204 -197 487 -469 132 -127 170 -154 235 -168 132 -27 248 62 256 197 6
96 -19 134 -217 322 -91 87 -187 178 -213 202 l-48 44 0 286 c0 278 -1 287
-23 326 -33 58 -71 69 -227 61 l-125 -7 -35 -34 c-33 -33 -35 -39 -39 -115
l-3 -81 -52 48 c-28 26 -131 124 -230 218 -286 273 -284 272 -374 281 -36 4
-58 0 -98 -19z"/>
</g>
</svg>
